<svg id="Layer_1" data-name="Layer 1" xmlns="http://www.w3.org/2000/svg" viewBox="0 0 240 80"><defs><style>.cls-1{fill:#1d3687;fill-rule:evenodd;stroke-width:0}.cls-2{fill:none;stroke:#1d3687;stroke-miterlimit:22.93;stroke-width:0}</style></defs><path class="cls-1" d="M31.26 64.39V48.74l.06.02h25.36c-4 9.21-13.21 15.67-23.86 15.67-.52 0-1.04-.02-1.56-.04zm26.61-18.98-26.61-.02.02-.02-.02-15.32h26.15c.92 2.63 1.4 5.46 1.4 8.4 0 2.4-.33 4.73-.94 6.96zm-1.85-18.67H31.26V12.51c.52-.04 1.04-.06 1.56-.06 10.11 0 18.9 5.83 23.19 14.3zM28.28 12.86v51.18C16.11 61.87 6.82 51.23 6.82 38.45s9.29-23.44 21.46-25.59zM11.65 48.57h2.24l.69-2.14.69 2.14h2.24l-1.8 1.34.69 2.13-1.82-1.32-1.8 1.32.67-2.13-1.8-1.34zM9.06 38.04h2.18l.67-2.07.67 2.07h2.18L13 39.34l.67 2.07-1.76-1.28-1.76 1.28.67-2.07-1.76-1.3zm3.03-11.03h2.22l.67-2.32.71 2.32h2.24l-1.82 1.32.69 2.13-1.8-1.32-1.8 1.32.69-2.13-1.8-1.32zm7.93-7.58h2.18l.67-2.07.67 2.07h2.18l-1.76 1.3.67 2.05-1.76-1.28-1.76 1.28.67-2.05-1.76-1.3zm-.13 36.64h2.22l.69-2.13.69 2.13h2.2l-1.78 1.3.67 2.13-1.78-1.32L21 59.5l.69-2.13-1.8-1.3z"/><path class="cls-2" d="M31.26 64.39V48.74l.06.02h25.36c-4 9.21-13.21 15.67-23.86 15.67-.52 0-1.04-.02-1.56-.04zm26.61-18.98-26.61-.02.02-.02-.02-15.32h26.15c.92 2.63 1.4 5.46 1.4 8.4 0 2.4-.33 4.73-.94 6.96zm-1.85-18.67H31.26V12.51c.52-.04 1.04-.06 1.56-.06 10.11 0 18.9 5.83 23.19 14.3zM28.28 12.86v51.18C16.11 61.87 6.82 51.23 6.82 38.45s9.29-23.44 21.46-25.59zM11.65 48.57h2.24l.69-2.14.69 2.14h2.24l-1.8 1.34.69 2.13-1.82-1.32-1.8 1.32.67-2.13-1.8-1.34zM9.06 38.04h2.18l.67-2.07.67 2.07h2.18L13 39.34l.67 2.07-1.76-1.28-1.76 1.28.67-2.07-1.76-1.3zm3.03-11.03h2.22l.67-2.32.71 2.32h2.24l-1.82 1.32.69 2.13-1.8-1.32-1.8 1.32.69-2.13-1.8-1.32zm7.93-7.58h2.18l.67-2.07.67 2.07h2.18l-1.76 1.3.67 2.05-1.76-1.28-1.76 1.28.67-2.05-1.76-1.3zm-.13 36.64h2.22l.69-2.13.69 2.13h2.2l-1.78 1.3.67 2.13-1.78-1.32L21 59.5l.69-2.13-1.8-1.3z"/><path class="cls-1" d="M71.24 51.63V25.68h19.23v4.39h-14v5.76h13.04v4.37H76.47v7.05h14.5v4.37H71.24zm24.15-25.95h5.23v14.06c0 2.22.06 3.66.19 4.33.23 1.07.77 1.9 1.61 2.55.84.65 1.99.96 3.45.96 1.49 0 2.62-.29 3.37-.9.75-.61 1.21-1.36 1.36-2.24.17-.9.23-2.36.23-4.42V25.66h5.23v13.62c0 3.12-.13 5.32-.42 6.61-.27 1.28-.8 2.36-1.57 3.26-.75.88-1.78 1.59-3.03 2.11-1.28.52-2.95.77-5 .77-2.49 0-4.35-.27-5.65-.86-1.28-.57-2.28-1.32-3.03-2.22-.73-.92-1.21-1.88-1.46-2.89-.33-1.49-.5-3.68-.5-6.59V25.64zm26.22 25.95V25.68h11.03c2.78 0 4.79.23 6.05.69 1.26.48 2.26 1.3 3.01 2.49.77 1.19 1.13 2.55 1.13 4.1 0 1.95-.56 3.56-1.72 4.81-1.13 1.28-2.85 2.07-5.13 2.41 1.13.65 2.07 1.38 2.8 2.18.75.79 1.74 2.2 2.99 4.21l3.16 5.06h-6.26l-3.79-5.65c-1.36-2.01-2.26-3.29-2.76-3.81s-1.03-.88-1.59-1.09c-.54-.19-1.42-.29-2.64-.29h-1.05v10.84h-5.25zm5.25-14.98h3.87c2.51 0 4.08-.1 4.71-.31.63-.21 1.11-.57 1.46-1.09.36-.52.54-1.17.54-1.95 0-.88-.25-1.59-.71-2.11-.46-.54-1.13-.88-1.97-1.03-.42-.06-1.7-.08-3.83-.08h-4.08v6.57zm19.86 2.18c0-2.66.4-4.88 1.17-6.65.61-1.32 1.4-2.51 2.43-3.58 1.03-1.05 2.13-1.82 3.35-2.32 1.63-.69 3.49-1.03 5.61-1.03 3.81 0 6.86 1.19 9.17 3.56 2.3 2.36 3.45 5.67 3.45 9.9s-1.15 7.47-3.43 9.84c-2.28 2.36-5.32 3.54-9.12 3.54s-6.93-1.17-9.21-3.52c-2.28-2.36-3.41-5.61-3.41-9.73zm5.4-.19c0 2.95.67 5.17 2.03 6.7 1.36 1.51 3.08 2.26 5.17 2.26s3.81-.75 5.15-2.26c1.34-1.51 2.01-3.75 2.01-6.76s-.65-5.19-1.97-6.65c-1.3-1.47-3.03-2.2-5.19-2.2-2.16 0-3.89.73-5.23 2.22-1.32 1.49-1.97 3.7-1.97 6.7zm23.69 12.99V25.68h5.25v25.95h-5.25zm10.3 0V25.68h5.11l10.61 17.33V25.68h4.88v25.95h-5.27L191 34.7v16.93h-4.88zm24.8-8.43 5.11-.5c.29 1.72.92 2.97 1.86 3.77.94.79 2.2 1.21 3.79 1.21 1.7 0 2.97-.36 3.83-1.09.86-.71 1.28-1.55 1.28-2.49 0-.63-.19-1.15-.54-1.57-.36-.44-.98-.82-1.88-1.13-.61-.21-2.01-.59-4.19-1.13-2.83-.69-4.79-1.55-5.92-2.57-1.59-1.42-2.39-3.16-2.39-5.21 0-1.32.38-2.55 1.13-3.7.73-1.15 1.82-2.03 3.22-2.64 1.42-.61 3.12-.9 5.11-.9 3.26 0 5.71.71 7.37 2.13 1.65 1.44 2.51 3.35 2.59 5.73l-5.23.23c-.23-1.34-.71-2.3-1.44-2.89-.75-.59-1.86-.88-3.33-.88-1.53 0-2.72.31-3.58.94-.54.4-.84.94-.84 1.61 0 .61.27 1.13.77 1.57.67.56 2.28 1.13 4.83 1.74 2.53.61 4.44 1.23 5.65 1.86 1.21.65 2.18 1.53 2.87 2.64.69 1.13 1.03 2.51 1.03 4.14 0 1.49-.4 2.89-1.23 4.16-.82 1.32-1.99 2.28-3.5 2.91-1.51.63-3.41.94-5.65.94-3.29 0-5.8-.75-7.55-2.26-1.76-1.53-2.83-3.75-3.16-6.63z"/><path class="cls-2" d="M71.24 51.63V25.68h19.23v4.39h-14v5.76h13.04v4.37H76.47v7.05h14.5v4.37H71.24zm24.15-25.95h5.23v14.06c0 2.22.06 3.66.19 4.33.23 1.07.77 1.9 1.61 2.55.84.65 1.99.96 3.45.96 1.49 0 2.62-.29 3.37-.9.75-.61 1.21-1.36 1.36-2.24.17-.9.23-2.36.23-4.42V25.66h5.23v13.62c0 3.12-.13 5.32-.42 6.61-.27 1.28-.8 2.36-1.57 3.26-.75.88-1.78 1.59-3.03 2.11-1.28.52-2.95.77-5 .77-2.49 0-4.35-.27-5.65-.86-1.28-.57-2.28-1.32-3.03-2.22-.73-.92-1.21-1.88-1.46-2.89-.33-1.49-.5-3.68-.5-6.59V25.64zm26.22 25.95V25.68h11.03c2.78 0 4.79.23 6.05.69 1.26.48 2.26 1.3 3.01 2.49.77 1.19 1.13 2.55 1.13 4.1 0 1.95-.56 3.56-1.72 4.81-1.13 1.28-2.85 2.07-5.13 2.41 1.13.65 2.07 1.38 2.8 2.18.75.79 1.74 2.2 2.99 4.21l3.16 5.06h-6.26l-3.79-5.65c-1.36-2.01-2.26-3.29-2.76-3.81s-1.03-.88-1.59-1.09c-.54-.19-1.42-.29-2.64-.29h-1.05v10.84h-5.25zm5.25-14.98h3.87c2.51 0 4.08-.1 4.71-.31.63-.21 1.11-.57 1.46-1.09.36-.52.54-1.17.54-1.95 0-.88-.25-1.59-.71-2.11-.46-.54-1.13-.88-1.97-1.03-.42-.06-1.7-.08-3.83-.08h-4.08v6.57zm19.86 2.18c0-2.66.4-4.88 1.17-6.65.61-1.32 1.4-2.51 2.43-3.58 1.03-1.05 2.13-1.82 3.35-2.32 1.63-.69 3.49-1.03 5.61-1.03 3.81 0 6.86 1.19 9.17 3.56 2.3 2.36 3.45 5.67 3.45 9.9s-1.15 7.47-3.43 9.84c-2.28 2.36-5.32 3.54-9.12 3.54s-6.93-1.17-9.21-3.52c-2.28-2.36-3.41-5.61-3.41-9.73zm5.4-.19c0 2.95.67 5.17 2.03 6.7 1.36 1.51 3.08 2.26 5.17 2.26s3.81-.75 5.15-2.26c1.34-1.51 2.01-3.75 2.01-6.76s-.65-5.19-1.97-6.65c-1.3-1.47-3.03-2.2-5.19-2.2-2.16 0-3.89.73-5.23 2.22-1.32 1.49-1.97 3.7-1.97 6.7zm23.69 12.99V25.68h5.25v25.95h-5.25zm10.3 0V25.68h5.11l10.61 17.33V25.68h4.88v25.95h-5.27L191 34.7v16.93h-4.88zm24.8-8.43 5.11-.5c.29 1.72.92 2.97 1.86 3.77.94.79 2.2 1.21 3.79 1.21 1.7 0 2.97-.36 3.83-1.09.86-.71 1.28-1.55 1.28-2.49 0-.63-.19-1.15-.54-1.57-.36-.44-.98-.82-1.88-1.13-.61-.21-2.01-.59-4.19-1.13-2.83-.69-4.79-1.55-5.92-2.57-1.59-1.42-2.39-3.16-2.39-5.21 0-1.32.38-2.55 1.13-3.7.73-1.15 1.82-2.03 3.22-2.64 1.42-.61 3.12-.9 5.11-.9 3.26 0 5.71.71 7.37 2.13 1.65 1.44 2.51 3.35 2.59 5.73l-5.23.23c-.23-1.34-.71-2.3-1.44-2.89-.75-.59-1.86-.88-3.33-.88-1.53 0-2.72.31-3.58.94-.54.4-.84.94-.84 1.61 0 .61.27 1.13.77 1.57.67.56 2.28 1.13 4.83 1.74 2.53.61 4.44 1.23 5.65 1.86 1.21.65 2.18 1.53 2.87 2.64.69 1.13 1.03 2.51 1.03 4.14 0 1.49-.4 2.89-1.23 4.16-.82 1.32-1.99 2.28-3.5 2.91-1.51.63-3.41.94-5.65.94-3.29 0-5.8-.75-7.55-2.26-1.76-1.53-2.83-3.75-3.16-6.63z"/><path class="cls-1" d="M71.3 64v-5.82h1.17l1.38 4.12c.13.38.21.67.27.86.06-.21.17-.52.31-.92l1.38-4.06h1.05V64h-.75v-4.88L74.41 64h-.69l-1.67-4.96V64h-.75zm10.78 0v-5.82h4.21v.69h-3.43v1.78h3.2v.69h-3.2v1.97h3.56V64h-4.33zm9.33 0v-5.82h1.15l1.38 4.12c.13.38.23.67.27.86.06-.21.17-.52.31-.92l1.4-4.06h1.03V64h-.73v-4.88L94.53 64h-.69l-1.7-4.96V64h-.73zm10.71 0v-5.82h2.18c.44 0 .79.06 1.07.19.27.1.48.29.63.54.17.23.23.48.23.75 0 .25-.06.48-.19.71-.15.21-.36.4-.63.52.36.1.63.29.82.52.19.25.29.54.29.9 0 .27-.06.52-.17.75-.13.23-.27.42-.44.54-.17.13-.38.21-.63.29-.25.06-.56.08-.94.08h-2.22zm.77-3.37h1.26c.34 0 .59-.02.73-.06.19-.06.34-.17.44-.29.1-.15.15-.31.15-.5 0-.21-.04-.38-.15-.52a.563.563 0 0 0-.38-.29c-.19-.06-.48-.08-.9-.08h-1.15v1.76zm0 2.68h1.44c.25 0 .42 0 .52-.02.17-.04.31-.08.44-.17.13-.06.21-.17.29-.31.08-.15.13-.31.13-.48a.89.89 0 0 0-.17-.56c-.13-.17-.27-.29-.46-.36-.21-.06-.48-.08-.86-.08h-1.34v1.99zm8.64.69v-5.82h4.21v.69h-3.43v1.78h3.22v.69h-3.22v1.97h3.58V64h-4.35zm9.38 0v-5.82h2.57c.52 0 .92.06 1.19.17.25.1.48.27.65.54.15.27.23.56.23.88 0 .42-.13.75-.4 1.05-.27.27-.69.46-1.23.54.21.08.36.19.46.29.23.19.44.46.63.75l1.03 1.59h-.96l-.77-1.21c-.23-.33-.42-.61-.56-.79-.15-.19-.27-.31-.38-.4-.13-.06-.25-.13-.36-.15-.08-.02-.23-.02-.44-.02h-.88v2.57h-.77zm.77-3.24h1.65c.33 0 .63-.04.82-.1.21-.08.36-.19.46-.36.11-.17.15-.33.15-.52 0-.27-.1-.5-.29-.67-.21-.19-.52-.27-.94-.27h-1.84v1.93zm13.31.42c0-.96.27-1.74.77-2.28.52-.54 1.19-.82 2.01-.82.54 0 1.03.13 1.46.4.42.25.75.61.98 1.07.23.46.33.98.33 1.55 0 .61-.13 1.13-.36 1.59-.23.46-.56.82-1 1.07-.44.23-.92.36-1.42.36-.54 0-1.03-.13-1.47-.4-.44-.27-.75-.63-.98-1.09-.21-.46-.33-.94-.33-1.44zm.8 0c0 .71.19 1.26.56 1.65.38.42.86.61 1.42.61.59 0 1.07-.19 1.42-.61.38-.4.56-.98.56-1.74 0-.46-.08-.88-.23-1.23-.17-.36-.4-.63-.71-.82-.31-.21-.65-.29-1.03-.29-.54 0-1.03.19-1.42.56-.38.38-.59.98-.59 1.86zm9.75 2.82v-5.82h3.93v.69h-3.16v1.8h2.74v.69h-2.74V64h-.77zm13.41 0v-5.82h4.21v.69h-3.43v1.78h3.22v.69h-3.22v1.97h3.58V64h-4.35zm13.18-5.82h.77v3.37c0 .59-.08 1.05-.21 1.38-.13.36-.38.63-.71.84-.36.23-.8.33-1.36.33s-.98-.1-1.34-.29a1.5 1.5 0 0 1-.73-.82c-.17-.36-.23-.84-.23-1.44v-3.37h.77v3.37c0 .5.04.88.13 1.11.1.23.27.42.5.54.21.15.5.21.84.21.57 0 .96-.13 1.21-.4.23-.25.36-.75.36-1.46v-3.37zm6.01 5.82v-5.82h2.59c.5 0 .9.06 1.17.17.27.1.48.27.65.54.17.27.25.56.25.88 0 .42-.15.75-.42 1.05-.25.27-.67.46-1.23.54.21.08.36.19.46.29.23.19.44.46.65.75l1 1.59h-.96l-.77-1.21c-.21-.33-.4-.61-.54-.79-.15-.19-.27-.31-.4-.4-.1-.06-.23-.13-.36-.15-.08-.02-.23-.02-.42-.02h-.9v2.57h-.77zm.77-3.24h1.65c.36 0 .63-.04.84-.1.19-.08.33-.19.44-.36.1-.17.17-.33.17-.52 0-.27-.1-.5-.31-.67-.19-.19-.5-.27-.94-.27h-1.84v1.93zm8.81.42c0-.96.25-1.74.77-2.28.52-.54 1.19-.82 2.01-.82.54 0 1.03.13 1.44.4.44.25.77.61 1 1.07.21.46.33.98.33 1.55 0 .61-.13 1.13-.36 1.59-.25.46-.59.82-1.03 1.07-.44.23-.9.36-1.4.36-.54 0-1.05-.13-1.46-.4-.44-.27-.77-.63-.98-1.09-.23-.46-.33-.94-.33-1.44zm.8 0c0 .71.19 1.26.56 1.65.38.42.84.61 1.42.61.57 0 1.05-.19 1.42-.61.38-.4.56-.98.56-1.74 0-.46-.08-.88-.25-1.23-.15-.36-.38-.63-.69-.82-.31-.21-.65-.29-1.05-.29-.54 0-1 .19-1.4.56-.4.38-.59.98-.59 1.86zm9.73 2.82v-5.82h.77v2.39h3.03v-2.39h.75V64h-.75v-2.74h-3.03V64h-.77zm9.56-2.82c0-.96.27-1.74.77-2.28.52-.54 1.19-.82 2.01-.82.54 0 1.03.13 1.46.4.42.25.75.61.98 1.07.23.46.33.98.33 1.55 0 .61-.13 1.13-.36 1.59-.23.46-.57.82-1 1.07-.44.23-.92.36-1.42.36-.54 0-1.03-.13-1.46-.4-.44-.27-.75-.63-.98-1.09-.21-.46-.33-.94-.33-1.44zm.8 0c0 .71.19 1.26.56 1.65.38.42.86.61 1.42.61.59 0 1.07-.19 1.42-.61.38-.4.57-.98.57-1.74 0-.46-.08-.88-.23-1.23-.17-.36-.4-.63-.71-.82-.31-.21-.65-.29-1.03-.29-.54 0-1.03.19-1.42.56-.38.38-.59.98-.59 1.86zM218.3 64v-5.82h.77v5.13h2.87V64h-3.64zm8.5 0v-5.82h2.01c.46 0 .79.02 1.05.08.34.08.61.21.84.42.31.25.54.59.69 1 .17.4.23.86.23 1.38 0 .44-.04.82-.15 1.17-.1.33-.23.63-.4.84-.17.23-.33.4-.54.52-.19.15-.42.23-.69.29-.27.08-.59.1-.92.1h-2.11zm.77-.69h1.24c.4 0 .69-.02.92-.1.21-.06.38-.17.52-.29.17-.19.31-.44.42-.73.1-.31.15-.69.15-1.13 0-.61-.1-1.07-.29-1.4-.21-.34-.44-.54-.73-.65-.21-.08-.54-.13-.98-.13h-1.23v4.44z"/><path class="cls-2" d="M71.3 64v-5.82h1.17l1.38 4.12c.13.38.21.67.27.86.06-.21.17-.52.31-.92l1.38-4.06h1.05V64h-.75v-4.88L74.41 64h-.69l-1.67-4.96V64h-.75zm10.78 0v-5.82h4.21v.69h-3.43v1.78h3.2v.69h-3.2v1.97h3.56V64h-4.33zm9.33 0v-5.82h1.15l1.38 4.12c.13.38.23.67.27.86.06-.21.17-.52.31-.92l1.4-4.06h1.03V64h-.73v-4.88L94.53 64h-.69l-1.7-4.96V64h-.73zm10.71 0v-5.82h2.18c.44 0 .79.06 1.07.19.27.1.48.29.63.54.17.23.23.48.23.75 0 .25-.06.48-.19.71-.15.21-.36.4-.63.52.36.1.63.29.82.52.19.25.29.54.29.9 0 .27-.06.52-.17.75-.13.23-.27.42-.44.54-.17.13-.38.21-.63.29-.25.06-.56.08-.94.08h-2.22zm.77-3.37h1.26c.34 0 .59-.02.73-.06.19-.06.34-.17.44-.29.1-.15.15-.31.15-.5 0-.21-.04-.38-.15-.52a.563.563 0 0 0-.38-.29c-.19-.06-.48-.08-.9-.08h-1.15v1.76zm0 2.68h1.44c.25 0 .42 0 .52-.02.17-.04.31-.08.44-.17.13-.06.21-.17.29-.31.08-.15.13-.31.13-.48a.89.89 0 0 0-.17-.56c-.13-.17-.27-.29-.46-.36-.21-.06-.48-.08-.86-.08h-1.34v1.99zm8.64.69v-5.82h4.21v.69h-3.43v1.78h3.22v.69h-3.22v1.97h3.58V64h-4.35zm9.38 0v-5.82h2.57c.52 0 .92.06 1.19.17.25.1.48.27.65.54.15.27.23.56.23.88 0 .42-.13.75-.4 1.05-.27.27-.69.46-1.23.54.21.08.36.19.46.29.23.19.44.46.63.75l1.03 1.59h-.96l-.77-1.21c-.23-.33-.42-.61-.56-.79-.15-.19-.27-.31-.38-.4-.13-.06-.25-.13-.36-.15-.08-.02-.23-.02-.44-.02h-.88v2.57h-.77zm.77-3.24h1.65c.33 0 .63-.04.82-.1.21-.08.36-.19.46-.36.11-.17.15-.33.15-.52 0-.27-.1-.5-.29-.67-.21-.19-.52-.27-.94-.27h-1.84v1.93zm13.31.42c0-.96.27-1.74.77-2.28.52-.54 1.19-.82 2.01-.82.54 0 1.03.13 1.46.4.42.25.75.61.98 1.07.23.46.33.98.33 1.55 0 .61-.13 1.13-.36 1.59-.23.46-.56.82-1 1.07-.44.23-.92.36-1.42.36-.54 0-1.03-.13-1.47-.4-.44-.27-.75-.63-.98-1.09-.21-.46-.33-.94-.33-1.44zm.8 0c0 .71.19 1.26.56 1.65.38.42.86.61 1.42.61.59 0 1.07-.19 1.42-.61.38-.4.56-.98.56-1.74 0-.46-.08-.88-.23-1.23-.17-.36-.4-.63-.71-.82-.31-.21-.65-.29-1.03-.29-.54 0-1.03.19-1.42.56-.38.38-.59.98-.59 1.86zm9.75 2.82v-5.82h3.93v.69h-3.16v1.8h2.74v.69h-2.74V64h-.77zm13.41 0v-5.82h4.21v.69h-3.43v1.78h3.22v.69h-3.22v1.97h3.58V64h-4.35zm13.18-5.82h.77v3.37c0 .59-.08 1.05-.21 1.38-.13.36-.38.63-.71.84-.36.23-.8.33-1.36.33s-.98-.1-1.34-.29a1.5 1.5 0 0 1-.73-.82c-.17-.36-.23-.84-.23-1.44v-3.37h.77v3.37c0 .5.04.88.13 1.11.1.23.27.42.5.54.21.15.5.21.84.21.57 0 .96-.13 1.21-.4.23-.25.36-.75.36-1.46v-3.37zm6.01 5.82v-5.82h2.59c.5 0 .9.06 1.17.17.27.1.48.27.65.54.17.27.25.56.25.88 0 .42-.15.75-.42 1.05-.25.27-.67.46-1.23.54.21.08.36.19.46.29.23.19.44.46.65.75l1 1.59h-.96l-.77-1.21c-.21-.33-.4-.61-.54-.79-.15-.19-.27-.31-.4-.4-.1-.06-.23-.13-.36-.15-.08-.02-.23-.02-.42-.02h-.9v2.57h-.77zm.77-3.24h1.65c.36 0 .63-.04.84-.1.19-.08.33-.19.44-.36.1-.17.17-.33.17-.52 0-.27-.1-.5-.31-.67-.19-.19-.5-.27-.94-.27h-1.84v1.93zm8.81.42c0-.96.25-1.74.77-2.28.52-.54 1.19-.82 2.01-.82.54 0 1.03.13 1.44.4.44.25.77.61 1 1.07.21.46.33.98.33 1.55 0 .61-.13 1.13-.36 1.59-.25.46-.59.82-1.03 1.07-.44.23-.9.36-1.4.36-.54 0-1.05-.13-1.46-.4-.44-.27-.77-.63-.98-1.09-.23-.46-.33-.94-.33-1.44zm.8 0c0 .71.19 1.26.56 1.65.38.42.84.61 1.42.61.57 0 1.05-.19 1.42-.61.38-.4.56-.98.56-1.74 0-.46-.08-.88-.25-1.23-.15-.36-.38-.63-.69-.82-.31-.21-.65-.29-1.05-.29-.54 0-1 .19-1.4.56-.4.38-.59.98-.59 1.86zm9.73 2.82v-5.82h.77v2.39h3.03v-2.39h.75V64h-.75v-2.74h-3.03V64h-.77zm9.56-2.82c0-.96.27-1.74.77-2.28.52-.54 1.19-.82 2.01-.82.54 0 1.03.13 1.46.4.42.25.75.61.98 1.07.23.46.33.98.33 1.55 0 .61-.13 1.13-.36 1.59-.23.46-.57.82-1 1.07-.44.23-.92.36-1.42.36-.54 0-1.03-.13-1.46-.4-.44-.27-.75-.63-.98-1.09-.21-.46-.33-.94-.33-1.44zm.8 0c0 .71.19 1.26.56 1.65.38.42.86.61 1.42.61.59 0 1.07-.19 1.42-.61.38-.4.57-.98.57-1.74 0-.46-.08-.88-.23-1.23-.17-.36-.4-.63-.71-.82-.31-.21-.65-.29-1.03-.29-.54 0-1.03.19-1.42.56-.38.38-.59.98-.59 1.86zM218.3 64v-5.82h.77v5.13h2.87V64h-3.64zm8.5 0v-5.82h2.01c.46 0 .79.02 1.05.08.34.08.61.21.84.42.31.25.54.59.69 1 .17.4.23.86.23 1.38 0 .44-.04.82-.15 1.17-.1.33-.23.63-.4.84-.17.23-.33.4-.54.52-.19.15-.42.23-.69.29-.27.08-.59.1-.92.1h-2.11zm.77-.69h1.24c.4 0 .69-.02.92-.1.21-.06.38-.17.52-.29.17-.19.31-.44.42-.73.1-.31.15-.69.15-1.13 0-.61-.1-1.07-.29-1.4-.21-.34-.44-.54-.73-.65-.21-.08-.54-.13-.98-.13h-1.23v4.44z"/></svg>