<?xml version="1.0" encoding="utf-8"?>
<!-- Generator: Adobe Illustrator 19.1.0, SVG Export Plug-In . SVG Version: 6.00 Build 0)  -->
<svg version="1.1" id="Layer_1" xmlns="http://www.w3.org/2000/svg" xmlns:xlink="http://www.w3.org/1999/xlink" x="0px" y="0px"
	 width="61.7px" height="48.8px" viewBox="-289 375.7 61.7 48.8" style="enable-background:new -289 375.7 61.7 48.8;"
	 xml:space="preserve">
<style type="text/css">
	.st0{fill:#00ACEC;}
	.st1{fill:#013765;}
</style>
<g>
	<path class="st0" d="M-257.7,396.9c5.9,0,10.6-4.7,10.6-10.6c0-5.9-4.7-10.6-10.6-10.6s-10.6,4.7-10.6,10.6
		C-268.2,392.2-263.4,396.9-257.7,396.9"/>
	<path class="st0" d="M-249.9,395.4c-2,2.2-5.7,4.3-10.2,4.3c-3.5,0-6.7-1.4-8.6-2.9c-11.6,1.2-20.2,2.8-20.2,2.8v4.7h61.7v-9.4
		C-227.3,394.8-237.9,394.6-249.9,395.4"/>
	<polygon class="st1" points="-227.3,423.3 -233.4,423.3 -233.4,417.8 -237.9,423.3 -243.6,423.3 -243.6,408.9 -237.3,408.9 
		-237.3,414.4 -233,408.9 -227.3,408.9 	"/>
	<path class="st1" d="M-273.5,424.5v-1.2h-9.6v1.2h-5.9v-5.9h2c1.6-2.9,1.8-6.3,1.8-9.6h15.9v9.6h2v5.9H-273.5z M-276.4,418.6v-5.1
		h-2.8c0,1.8-0.4,3.3-1,5.1H-276.4z"/>
	<path class="st1" d="M-249.1,415.2c1.4,0.4,2.8,1.4,2.8,3.1c0,2.8-3.1,4.1-5.5,4.7c-1.2,0.2-2.4,0.4-3.7,0.4c-2.6,0-4.5-0.4-6.1-1
		c-1.8-0.8-2.8-2-3.5-3.7l7.1-0.4c0.8,2.6,4.1,1.8,4.1,0.2c0-1.2-1.8-1.2-2.4-1.2h-2.2v-3.1h2c1,0,1.6-0.6,1.6-1.4
		c-0.2-1.4-3.1-1.2-3.1,0.6c-2.4-0.2-4.7-0.4-6.9-0.6c0.6-1.6,1.6-2.8,3.1-3.3c1.4-0.6,3.3-1,5.7-1c1.4,0,2.4,0,3.5,0.2
		c1,0.2,2,0.4,2.8,0.8c1.2,0.6,2.4,1.6,2.4,2.9C-247.3,413.8-248.1,414.8-249.1,415.2"/>
</g>
</svg>
