<?xml version="1.0" encoding="UTF-8"?>
<svg id="Layer_1" data-name="Layer 1" xmlns="http://www.w3.org/2000/svg" xmlns:xlink="http://www.w3.org/1999/xlink" viewBox="0 0 2000 1373.36">
  <defs>
    <linearGradient id="linear-gradient" x1="654.79" y1="559.24" x2="1135.17" y2="559.24" gradientUnits="userSpaceOnUse">
      <stop offset="0" stop-color="#fff"/>
      <stop offset=".04" stop-color="#e6f3ee"/>
      <stop offset=".14" stop-color="#b3dccd"/>
      <stop offset=".24" stop-color="#87c8b0"/>
      <stop offset=".35" stop-color="#62b797"/>
      <stop offset=".46" stop-color="#43a983"/>
      <stop offset=".58" stop-color="#2b9e73"/>
      <stop offset=".7" stop-color="#1b9668"/>
      <stop offset=".83" stop-color="#119262"/>
      <stop offset="1" stop-color="#0e9160"/>
    </linearGradient>
    <linearGradient id="linear-gradient-2" x1="562.09" y1="380.43" x2="1045.72" y2="380.43" gradientUnits="userSpaceOnUse">
      <stop offset="0" stop-color="#fff"/>
      <stop offset="1" stop-color="#0e9160"/>
    </linearGradient>
    <linearGradient id="linear-gradient-3" x1="733.75" y1="400.93" x2="987.82" y2="400.93" xlink:href="#linear-gradient-2"/>
  </defs>
  <g>
    <g>
      <path d="M1116.87,1245.71v-56.26h-184.01v56.26h-68.15v-110.91c46.75-1.95,53.78-70.4,56.67-134.62l2.92-77.66h222.96v212.33h37.78v110.87h-68.16ZM985.03,1007.52c-2.31,57.17-8.59,91.67-20.37,111.87l-9.02,15.46h116.88v-157.73h-86.28l-1.21,30.4Z" style="fill: #fff;"/>
      <path d="M1136.97,932.8v212.33h37.78v90.31h-47.6v-56.26h-204.57v56.26h-47.6v-91.6c50.73-11.24,54.4-92.96,56.67-143.34l2.54-67.69h202.78M937.75,1145.13h145.05v-178.29h-106.43l-.79,19.73-.82,20.53c-1.39,34.39-4.87,82.91-18.98,107.11l-18.03,30.91M1157.53,912.24h-243.14l-3.28,87.48c-3.29,73.1-12.74,124.85-48.46,124.85h-8.22v131.42h88.71v-56.26h163.46v56.26h88.71v-131.42h-37.78v-212.33h0ZM973.54,1124.57c14.37-24.64,19.71-65.71,21.76-116.64l.82-20.54h66.12v137.17h-88.7Z" style="fill: #0e9162;"/>
    </g>
    <g>
      <g>
        <path d="M1369.45,1245.37c-43.95,0-88.11-8.59-128.36-24.91l25.76-60.85c30.29,10.94,63.59,17.12,92.85,17.12,45.5,0,72.66-15.32,72.66-40.98,0-11.48-5.71-30.75-43.91-30.75h-81.83v-62.29h72.08c29.5,0,40.01-15.88,40.01-30.75,0-22.92-22.06-36.6-59.02-36.6-26.26,0-56.97,6.92-84.12,18.76l-25.97-65.86c33.31-13.61,71.84-21.04,109.6-21.04,77,0,154.94,31.46,154.94,91.58,0,26.21-14.19,48.84-38.93,62.09l-19.32,10.35,20.31,8.24c32.3,13.1,51.58,39.96,51.58,71.87,0,64.6-82.08,94.02-158.35,94.02Z" style="fill: #fff;"/>
        <path d="M1359.2,917.51c71.89,0,144.67,27.93,144.67,81.3,0,22.63-11.9,41.46-33.5,53.03l-38.65,20.7,40.63,16.47c28.7,11.64,45.17,34.36,45.17,62.34,0,57.54-76.75,83.74-148.07,83.74-39.12,0-78.4-7.01-114.76-20.39l17.89-42.26c28.83,9.35,59.68,14.58,87.11,14.58,76.96,0,82.94-39.24,82.94-51.26,0-9.62-3.91-41.03-54.18-41.03h-71.55v-41.74h61.81c37.12,0,50.28-22.1,50.28-41.03,0-22.66-18.2-46.88-69.3-46.88-24.46,0-52.53,5.68-78.37,15.59l-18.35-46.54c29.82-10.79,63.31-16.63,96.24-16.63M1359.2,896.95c-40.94,0-84.31,8.29-122.81,25.83l33.63,85.29c29.24-14.62,62.87-22.42,89.67-22.42,28.27,0,48.74,8.77,48.74,26.32,0,12.67-10.23,20.47-29.73,20.47h-82.36v82.85h92.11c18.52,0,33.62,4.87,33.62,20.47,0,20.96-26.8,30.7-62.38,30.7-29.73,0-65.79-6.82-98.45-19.98l-33.62,79.44c46.3,20.47,96.01,29.73,141.83,29.73,92.11,0,168.63-38.02,168.63-104.3,0-36.55-21.93-66.77-58-81.39,27.29-14.62,44.36-39.96,44.36-71.15,0-64.34-77.49-101.86-165.23-101.86h0Z" style="fill: #0e9162;"/>
      </g>
      <g>
        <path d="M1764.66,1244.89c-105.59,0-182.24-70.69-182.24-168.1s76.64-168.1,182.24-168.1,182.23,70.7,182.23,168.1-76.64,168.1-182.23,168.1ZM1764.66,981.22c-51.1,0-86.8,39.3-86.8,95.57s35.69,95.57,86.8,95.57,86.79-39.3,86.79-95.57-35.69-95.57-86.79-95.57Z" style="fill: #fff;"/>
        <path d="M1764.66,918.97c99.64,0,171.95,66.37,171.95,157.82s-72.32,157.82-171.95,157.82-171.95-66.37-171.95-157.82,72.32-157.82,171.95-157.82M1764.66,1182.64c56.25,0,97.07-44.51,97.07-105.85s-40.82-105.85-97.07-105.85-97.07,44.52-97.07,105.85,40.82,105.85,97.07,105.85M1764.66,898.41c-111.12,0-192.51,75.05-192.51,178.38s81.39,178.38,192.51,178.38,192.51-75.05,192.51-178.38-81.4-178.38-192.51-178.38h0ZM1764.66,1162.08c-42.4,0-76.51-32.17-76.51-85.29s34.11-85.29,76.51-85.29,76.52,32.17,76.52,85.29-34.11,85.29-76.52,85.29h0Z" style="fill: #0e9162;"/>
      </g>
    </g>
  </g>
  <rect x="435.24" y="160.91" width="348.84" height="1095.59" rx="79.79" ry="79.79" style="fill: #0e9160;"/>
  <rect x="73.03" y="481.92" width="1087.53" height="371.35" rx="82.29" ry="82.29" style="fill: #0e9160;"/>
  <path d="M1125.88,542.51s-2.45-37.4-2.45-37.4c.39-10.99-7.93-20.03-19.11-19.11-49.41,4.62-98.79,10.11-147.64,19.11,42.18,7.77,84.75,12.92,127.39,17.15-3.63,55.9-6.32,114.5-8.12,169.83-.8,25.99-1.47,53.98-1.97,81.03-46.3-.41-93.26-.33-139.17.23-4.93.1-30.8.46-35.14.52-145.11.27-227.29-104.7-193.47-246.04,20.97-90.59,72.07-170.4,126.26-245.09-27.74,25.92-53.76,53.68-77.37,83.55-47.8,60.74-87.97,132.04-98.09,210.26-16.85,127.14,64.11,228.47,187.99,252.4,28.53,6.39,60.7,5.65,89.86,6.26,27.26.56,57.3.22,84.74.55,27.31-.28,57.61-.03,84.74-.63,17.1.24,31.13-13.72,30.84-30.84-1.09-86.57-4.17-175.31-9.29-261.77Z" style="fill: url(#linear-gradient);"/>
  <path d="M1045.72,32.69c-2.55,9.54-6.73,18.69-11.59,27.53-5.06,8.71-11.05,16.9-17.51,24.7-13.08,15.42-28.09,29.06-43.67,41.64-31.35,24.99-64.97,46.07-98.24,66.63l-49.81,30.38c-16.43,10.19-32.8,20.23-48.7,30.74-15.89,10.52-31.57,21.12-46.45,32.49-14.96,11.24-29.35,22.98-42.62,35.59-13.37,12.48-25.67,25.78-36.38,39.99-10.89,14.09-20.03,29.2-27.34,45.07-7.39,15.85-12.53,32.63-15.83,49.95-.85,4.33-1.3,8.74-2,13.11-.58,4.4-.74,8.86-1.21,13.3-.38,4.45-.33,8.96-.54,13.45-.2,4.5.18,9.03.22,13.57-.02,4.54.64,9.08.9,13.65.2,2.28.28,4.57.57,6.85l.9,6.85c.58,4.58,1.14,9.17,2.08,13.73.92,4.55,1.5,9.19,2.55,13.75l3.09,13.73c1.1,4.58,2.48,9.09,3.63,13.68.62,2.29,1.18,4.59,1.84,6.87l2.12,6.81c1.44,4.53,2.77,9.11,4.3,13.64,12.15,36.3,27.75,71.97,44.2,107.78-3.18-3.75-6.33-7.55-9.41-11.39-3.07-3.85-6.3-7.61-9.26-11.56l-8.84-11.89-4.39-5.99-4.16-6.14-8.3-12.35c-2.7-4.17-5.22-8.45-7.85-12.68-5.34-8.42-9.91-17.3-14.78-26.06-9.07-17.86-17.55-36.23-24.11-55.57-1.75-4.79-3.14-9.73-4.65-14.62-1.57-4.88-2.78-9.89-3.99-14.91l-1.84-7.53c-.61-2.51-1-5.09-1.51-7.63-.92-5.12-2.03-10.2-2.54-15.42-.55-5.2-1.43-10.38-1.7-15.64-.27-5.26-.78-10.52-.82-15.82.04-5.3-.04-10.62.25-15.94.42-5.31.63-10.66,1.27-15.98,2.28-21.32,7.84-42.42,15.87-62.42,8.07-20.02,18.95-38.72,31.35-55.94,12.57-17.13,26.76-32.71,41.81-46.99,15.21-14.11,31.19-27.01,47.67-38.9,16.57-11.76,33.43-22.78,50.66-32.93,17.23-10.14,34.57-19.8,52.12-28.84,17.47-9.18,35.08-17.83,52.6-26.42,35.06-17.15,70.04-33.62,103.39-52.39,16.64-9.42,32.74-19.61,47.79-31.29,7.37-5.97,14.58-12.22,21.17-19.19,6.6-6.95,12.46-14.64,17.68-23.03Z" style="fill: url(#linear-gradient-2);"/>
  <path d="M987.82,119.52c-8.13,11.64-15.98,23.12-23.04,34.88-7.05,11.75-13.34,23.73-18.53,35.96-10.5,24.42-16.93,49.58-19.24,75.25-2.43,25.67-1.38,51.74,1.02,78.56,1.25,13.41,2.51,27.02,3.99,40.88,1.32,13.86,2.49,28,3.28,42.46.58,14.46.71,29.24-.28,44.28-1.22,15.02-3.37,30.3-7.38,45.33-7.89,30.12-23.45,58.68-43.96,81.17-20.49,22.63-44.76,40.08-70.22,53.6-12.78,6.72-25.78,12.73-39.13,17.69-13.26,5.15-26.84,9.32-40.57,12.76,22.8-16.83,45.34-33.02,65.74-50.91,20.47-17.71,38.94-36.85,53.14-57.76,3.56-5.21,6.85-10.54,9.77-16.01,1.45-2.74,3.01-5.4,4.27-8.21l2.01-4.14,1.79-4.23c4.63-11.32,8.42-22.88,10.67-34.96,2.34-12.05,3.79-24.44,4.2-37.18.6-12.73.33-25.8-.35-39.1-.49-13.32-1.54-26.9-2.48-40.76-.78-13.86-1.8-27.96-2.07-42.32-.29-14.34-.24-28.96,1-43.67,1.08-14.71,3.26-29.52,6.67-44.12,6.76-29.21,19.43-57.25,36.83-80.93,8.69-11.86,18.41-22.75,29.03-32.46,10.58-9.75,21.88-18.48,33.86-26.05Z" style="fill: url(#linear-gradient-3);"/>
  <path d="M715.66,191.66c13.76,0,22.86,4.74,28.65,14.92,5.19,9.12,7.71,22.56,7.71,41.1v263.25h323.52c31.37,0,56.89,25.51,56.89,56.92l1.31,200.33c0,31.36-25.52,56.87-56.89,56.87h-324.8l-.03,6.97-1.31,338.97c0,30.89-25.14,56.02-56.04,56.02h-175.35c-30.9,0-56.04-25.13-56.04-55.99l1.31-338.94.03-7.03H162.61c-31.37,0-56.89-25.51-56.89-56.91l-1.31-200.99c0-31.36,25.52-56.87,56.89-56.87h303.28V247.67c0-30.89,25.14-56.02,56.04-56.02h195.03M715.66,184.66h-195.03c-34.82,0-63.04,28.21-63.04,63.02v255.59H161.3c-35.29,0-63.89,28.6-63.89,63.87l1.31,201.03c0,35.27,28.61,63.87,63.89,63.87h294.97l-1.31,338.94c0,34.8,28.23,63.02,63.04,63.02h175.35c34.82,0,63.04-28.21,63.04-63.02l1.31-338.94h317.83c35.29,0,63.89-28.6,63.89-63.87l-1.31-200.38c0-35.27-28.61-63.87-63.89-63.87h-316.52V247.67c0-34.8-8.54-63.02-43.36-63.02h0Z" style="fill: #fff;"/>
</svg>